:SAMPLES-PER-SECOND 30
:FULLY-SPECIFIED
:DEGREES
282
root  -0.136512 40.6981 -7.22499 16.6442 81.1891 17.8668
RightUpLeg  4.21215 -11.5272 -10.899
RightLeg  8.97493 -1.9096 2.67205
RightFoot  -8.32336 -0.128252 2.73589
RightToes  0.00048216 0.542163 -0.142577
Spine  3.52988 3.0012 4.39995
Spine1  6.04536 4.18859 -3.44993
HEad  6.8293 -4.59603 -5.31096
LeftShoulder1  3.0147 -5.2377 -28.3247
LeftArm  -24.2619 30.4551 -12.2148
LeftForeArm  12.1094 -18.319 -2.39827
LeftHand  -0.25398 0.0180481 5.50724
RightShoulder  3.23184 6.12458 27.5401
RightArm  -13.8055 -6.33982 14.8779
RightForeArm  -1.61328 22.9537 5.03166
RightHand  -0.64913 -0.0213527 -14.0125
LeftUpLeg  3.23682 3.59301 -0.318556
LeftLeg  8.29053 2.72634 -1.18646
LeftFoot  -6.35174 0.0355163 0.074771
LeftToes  1.06243e-005 4.65856e-005 -8.18505e-006
283
root  -0.325565 40.8002 -6.99817 19.47 80.9918 19.9528
RightUpLeg  3.924 -11.071 -10.747
RightLeg  7.26195 -2.55806 3.11582
RightFoot  -7.71163 -0.110066 1.82593
RightToes  0.00048216 0.542163 -0.142577
Spine  3.02574 3.22062 3.8941
Spine1  5.3095 4.39962 -3.58161
HEad  8.10059 -4.28024 -5.1537
LeftShoulder1  2.35996 -3.88456 -25.6847
LeftArm  -25.0218 29.8453 -13.0039
LeftForeArm  15.0642 -18.8507 -2.51701
LeftHand  -0.25398 0.0180481 5.50724
RightShoulder  2.96161 5.67799 26.1776
RightArm  -14.6923 -4.61826 14.1571
RightForeArm  2.8373 24.9803 5.19865
RightHand  -0.48345 -0.950914 -12.5495
LeftUpLeg  2.67143 4.23097 -0.389237
LeftLeg  7.10261 7.55587 -1.6776
LeftFoot  -4.98534 0.0332414 -0.0602668
LeftToes  1.06243e-005 4.65856e-005 -8.18505e-006
284
root  -0.507758 40.8522 -6.79979 21.1042 81.2817 20.9292
RightUpLeg  3.37861 -10.9941 -10.3017
RightLeg  6.55294 -3.16624 3.39319
RightFoot  -7.19038 -0.0878213 1.06869
RightToes  0.00048216 0.542163 -0.142577
Spine  2.64937 3.2497 4.0047
Spine1  4.76451 4.51135 -4.13326
HEad  9.16709 -4.24825 -4.87226
LeftShoulder1  1.89089 -2.92945 -23.0101
LeftArm  -22.4259 28.617 -12.9447
LeftForeArm  17.358 -17.6359 -2.21035
LeftHand  -0.25398 0.0180481 5.50724
RightShoulder  2.59943 4.92502 24.699
RightArm  -15.6127 -3.24865 13.3957
RightForeArm  7.70998 26.6292 5.31853
RightHand  -0.463919 -0.994784 -12.1249
LeftUpLeg  2.61855 4.2671 -0.176523
LeftLeg  5.20129 12.6323 -2.60063
LeftFoot  -4.42397 0.0180572 0.132269
LeftToes  1.06243e-005 4.65856e-005 -8.18505e-006
285
root  -0.680211 40.8583 -6.64157 21.2158 82.039 20.2692
RightUpLeg  2.50908 -10.7194 -9.4621
RightLeg  6.44674 -4.19825 3.55465
RightFoot  -6.97659 -0.0792736 0.835734
RightToes  0.00048216 0.542163 -0.142577
Spine  2.30558 3.12169 4.4402
Spine1  4.21411 4.39743 -4.58243
HEad  10.0701 -4.19672 -4.72196
LeftShoulder1  1.5907 -2.38241 -20.4776
LeftArm  -19.2409 27.751 -12.2976
LeftForeArm  18.4899 -15.665 -1.9758
LeftHand  -0.25398 0.0180481 5.50724
RightShoulder  2.26112 4.18594 23.191
RightArm  -16.3755 -2.14152 11.8625
RightForeArm  10.6876 27.3403 5.32028
RightHand  -0.506327 -0.695655 -12.44
LeftUpLeg  2.34138 3.90087 0.17492
LeftLeg  3.50756 16.3346 -3.22181
LeftFoot  -4.55881 -0.015118 0.624464
LeftToes  1.06243e-005 4.65856e-005 -8.18505e-006
286
root  -0.840376 40.8572 -6.50102 22.0312 83.1304 20.3892
RightUpLeg  1.72871 -10.4626 -8.65932
RightLeg  6.4103 -5.56999 3.70247
RightFoot  -6.93994 -0.0680929 0.54721
RightToes  0.00048216 0.542163 -0.142577
Spine  2.19841 2.89687 4.11605
Spine1  3.52492 3.95749 -4.04298
HEad  10.9215 -4.11363 -4.75908
LeftShoulder1  1.32008 -1.83125 -18.0049
LeftArm  -17.5986 27.4536 -11.813
LeftForeArm  17.76 -13.5229 -1.80845
LeftHand  -0.25398 0.0180481 5.50724
RightShoulder  2.02841 3.79188 21.4953
RightArm  -17.35 -1.77218 9.58775
RightForeArm  10.82 27.0214 5.24014
RightHand  -0.532991 -0.59491 -12.8372
LeftUpLeg  1.73273 3.79441 0.557735
LeftLeg  2.60024 17.1432 -3.29657
LeftFoot  -4.60713 -0.0197051 0.683127
LeftToes  1.06243e-005 4.65856e-005 -8.18505e-006
287
root  -0.977941 40.8765 -6.35757 26.7538 84.3828 24.7566
RightUpLeg  1.37179 -10.4421 -8.25433
RightLeg  6.37283 -7.03607 3.805
RightFoot  -6.78488 -0.0499004 0.0987847
RightToes  0.00048216 0.542163 -0.142577
Spine  2.4213 2.64141 2.77091
Spine1  2.84815 3.34994 -2.60642
HEad  11.7263 -4.25001 -4.69928
LeftShoulder1  1.04025 -1.12721 -15.518
LeftArm  -17.3176 27.2252 -11.5547
LeftForeArm  15.2992 -11.2898 -1.50555
LeftHand  -0.25398 0.0180481 5.50724
RightShoulder  1.85043 3.59902 19.616
RightArm  -18.6274 -2.4694 7.2506
RightForeArm  8.79261 25.7642 5.0616
RightHand  -0.568552 -0.446651 -13.3001
LeftUpLeg  1.28881 3.84225 0.912253
LeftLeg  2.05992 15.7172 -3.36591
LeftFoot  -4.08812 0.0209912 0.0469241
LeftToes  1.06243e-005 4.65856e-005 -8.18505e-006
288
root  -1.07717 40.9089 -6.21976 37.0963 85.5688 34.9954
RightUpLeg  1.38307 -10.4569 -8.14199
RightLeg  6.29965 -8.53941 3.7995
RightFoot  -6.56335 -0.0401382 -0.117311
RightToes  0.00048216 0.542163 -0.142577
Spine  2.63879 2.42139 1.28047
Spine1  2.44239 2.85472 -1.29412
HEad  12.3858 -4.75146 -4.25285
LeftShoulder1  0.812644 -0.531795 -12.9721
LeftArm  -17.2177 26.7854 -10.9881
LeftForeArm  12.3283 -9.1045 -1.21073
LeftHand  -0.25398 0.0180481 5.50724
RightShoulder  1.61933 3.13599 17.8131
RightArm  -19.9579 -3.74145 5.28658
RightForeArm  6.20631 23.4467 4.71753
RightHand  -0.613247 -0.189576 -13.6767
LeftUpLeg  1.2173 3.83099 1.12711
LeftLeg  1.32813 13.8461 -3.63372
LeftFoot  -3.24854 0.0655127 -0.641681
LeftToes  1.06243e-005 4.65856e-005 -8.18505e-006
289
root  -1.13144 40.933 -6.11189 52.0673 86.521 49.8026
RightUpLeg  1.50635 -10.3688 -7.98703
RightLeg  5.97215 -10.0078 3.78094
RightFoot  -6.45965 -0.04279 -0.111541
RightToes  0.00048216 0.542163 -0.142577
Spine  2.48261 2.27416 0.401509
Spine1  2.33861 2.57567 -0.63209
HEad  12.8854 -5.47806 -3.5582
LeftShoulder1  0.64972 -0.151103 -10.3571
LeftArm  -16.8042 26.2669 -10.0085
LeftForeArm  9.97812 -7.29485 -1.08424
LeftHand  -0.25398 0.0180481 5.50724
RightShoulder  1.29544 2.17923 16.0714
RightArm  -21.4966 -4.86397 3.65784
RightForeArm  4.63597 19.9403 4.27135
RightHand  -0.588427 -0.291117 -13.3579
LeftUpLeg  1.14271 3.69237 1.191
LeftLeg  0.586527 12.6311 -3.75422
LeftFoot  -2.60709 0.077082 -0.813034
LeftToes  1.06243e-005 4.65856e-005 -8.18505e-006
